<svg width="29" height="29" viewBox="0 0 29 29" fill="none" xmlns="http://www.w3.org/2000/svg">
<path d="M26.5647 12.9934L25.7264 4.14043C25.6839 3.68164 25.3186 3.31914 24.8598 3.27383L16.0068 2.43555H15.9955C15.9049 2.43555 15.8341 2.46387 15.7803 2.51768L2.51788 15.7801C2.49163 15.8063 2.4708 15.8374 2.45659 15.8717C2.44237 15.9059 2.43506 15.9426 2.43506 15.9797C2.43506 16.0168 2.44237 16.0536 2.45659 16.0878C2.4708 16.1221 2.49163 16.1532 2.51788 16.1794L12.8208 26.4823C12.8746 26.5361 12.9454 26.5645 13.0219 26.5645C13.0983 26.5645 13.1691 26.5361 13.223 26.4823L26.4854 13.2199C26.542 13.1604 26.5703 13.0783 26.5647 12.9934ZM19.7961 10.96C18.7964 10.96 17.9836 10.1472 17.9836 9.14746C17.9836 8.14775 18.7964 7.33496 19.7961 7.33496C20.7958 7.33496 21.6086 8.14775 21.6086 9.14746C21.6086 10.1472 20.7958 10.96 19.7961 10.96Z" fill="#868686"/>
</svg>
