<svg width="29" height="29" viewBox="0 0 29 29" fill="none" xmlns="http://www.w3.org/2000/svg">
<path d="M26.1002 4.34998H2.9002C2.51563 4.34998 2.14682 4.50274 1.87489 4.77467C1.60296 5.0466 1.4502 5.41541 1.4502 5.79998V23.2C1.4502 23.5845 1.60296 23.9534 1.87489 24.2253C2.14682 24.4972 2.51563 24.65 2.9002 24.65H26.1002C26.4848 24.65 26.8536 24.4972 27.1255 24.2253C27.3974 23.9534 27.5502 23.5845 27.5502 23.2V5.79998C27.5502 5.41541 27.3974 5.0466 27.1255 4.77467C26.8536 4.50274 26.4848 4.34998 26.1002 4.34998ZM19.2127 9.42498C19.6934 9.42498 20.1544 9.61593 20.4943 9.95584C20.8342 10.2958 21.0252 10.7568 21.0252 11.2375C21.0252 11.7182 20.8342 12.1792 20.4943 12.5191C20.1544 12.859 19.6934 13.05 19.2127 13.05C18.732 13.05 18.271 12.859 17.9311 12.5191C17.5912 12.1792 17.4002 11.7182 17.4002 11.2375C17.4002 10.7568 17.5912 10.2958 17.9311 9.95584C18.271 9.61593 18.732 9.42498 19.2127 9.42498ZM5.8002 20.3L10.6055 9.25243L16.0705 18.1003L20.7555 15.7731L23.2002 20.3H5.8002Z" fill="#868686"/>
</svg>
