<svg width="28" height="28" viewBox="0 0 28 28" fill="none" xmlns="http://www.w3.org/2000/svg">
<path d="M25.7585 2.80005H2.2399C1.7751 2.80005 1.3999 3.17385 1.3999 3.64005V7.00005H26.5999V3.64005C26.5999 3.52962 26.5781 3.42028 26.5358 3.31827C26.4935 3.21627 26.4315 3.1236 26.3534 3.04558C26.2752 2.96757 26.1825 2.90572 26.0804 2.86359C25.9783 2.82146 25.8689 2.79987 25.7585 2.80005ZM2.7999 23.2401C2.7999 24.3181 3.6805 25.2 4.7585 25.2H23.2385C24.3165 25.2 25.1985 24.3167 25.1985 23.2401V8.40005H2.7999V23.2401ZM9.7999 11.2001H18.1999V14H9.7999V11.2001Z" fill="#868686"/>
</svg>
