<svg width="34" height="27" viewBox="0 0 34 27" fill="none" xmlns="http://www.w3.org/2000/svg">
<path d="M17 7.59375C14.1833 7.59375 11.9 10.2379 11.9 13.5C11.9 16.7616 14.1833 19.4062 17 19.4062C19.8156 19.4062 22.1 16.7627 22.1 13.5C22.1 10.2379 19.8167 7.59375 17 7.59375ZM19.125 16.4531C19.125 16.6862 18.9348 16.875 18.7 16.875H15.3C15.0652 16.875 14.875 16.6862 14.875 16.4531V15.6094C14.875 15.3763 15.0652 15.1875 15.3 15.1875H16.15V12.2639L16.125 12.2803C16.0786 12.311 16.0265 12.3324 15.9718 12.3431C15.9171 12.3539 15.8607 12.3538 15.806 12.343C15.7513 12.3321 15.6993 12.3106 15.6529 12.2798C15.6066 12.2489 15.5668 12.2093 15.5359 12.1632L15.0641 11.4613C15.0331 11.4152 15.0116 11.3635 15.0008 11.3092C14.9899 11.2549 14.99 11.1989 15.001 11.1446C15.0119 11.0903 15.0335 11.0387 15.0646 10.9926C15.0957 10.9466 15.1356 10.9072 15.1821 10.8765L15.9965 10.3375C16.2059 10.1989 16.4519 10.125 16.7036 10.125H17.425C17.6598 10.125 17.85 10.3138 17.85 10.5469V15.1875H18.7C18.9348 15.1875 19.125 15.3763 19.125 15.6094V16.4531ZM32.3 3.375H1.7C0.761281 3.375 0 4.13068 0 5.0625V21.9375C0 22.8693 0.761281 23.625 1.7 23.625H32.3C33.2387 23.625 34 22.8693 34 21.9375V5.0625C34 4.13068 33.2387 3.375 32.3 3.375ZM31.45 17.7188C29.572 17.7188 28.05 19.2296 28.05 21.0938H5.95C5.95 19.2296 4.42797 17.7188 2.55 17.7188V9.28125C4.42797 9.28125 5.95 7.77041 5.95 5.90625H28.05C28.05 7.77041 29.572 9.28125 31.45 9.28125V17.7188Z" fill="#868686"/>
</svg>
