<svg width="35" height="28" viewBox="0 0 35 28" fill="none" xmlns="http://www.w3.org/2000/svg">
<path d="M19.25 15.75H18.375V10.9375C18.375 10.6958 18.1792 10.5 17.9375 10.5H17.1948C16.9356 10.5 16.6824 10.5766 16.467 10.7204L15.6286 11.2793C15.5808 11.3111 15.5397 11.3521 15.5077 11.3998C15.4757 11.4475 15.4535 11.5011 15.4422 11.5574C15.4309 11.6137 15.4309 11.6717 15.442 11.728C15.4532 11.7844 15.4753 11.838 15.5072 11.8858L15.9928 12.6137C16.0246 12.6615 16.0656 12.7026 16.1133 12.7345C16.161 12.7665 16.2146 12.7888 16.2709 12.8001C16.3272 12.8113 16.3852 12.8114 16.4416 12.8002C16.4979 12.7891 16.5515 12.767 16.5993 12.7351L16.625 12.7181V15.75H15.75C15.5083 15.75 15.3125 15.9458 15.3125 16.1875V17.0625C15.3125 17.3042 15.5083 17.5 15.75 17.5H19.25C19.4917 17.5 19.6875 17.3042 19.6875 17.0625V16.1875C19.6875 15.9458 19.4917 15.75 19.25 15.75ZM33.25 3.5H1.75C0.783672 3.5 0 4.28367 0 5.25V22.75C0 23.7163 0.783672 24.5 1.75 24.5H33.25C34.2163 24.5 35 23.7163 35 22.75V5.25C35 4.28367 34.2163 3.5 33.25 3.5ZM2.625 21.875V18.375C4.5582 18.375 6.125 19.9418 6.125 21.875H2.625ZM2.625 9.625V6.125H6.125C6.125 8.0582 4.5582 9.625 2.625 9.625ZM17.5 20.125C14.6005 20.125 12.25 17.3824 12.25 14C12.25 10.617 14.6005 7.875 17.5 7.875C20.3995 7.875 22.75 10.617 22.75 14C22.75 17.3835 20.3984 20.125 17.5 20.125ZM32.375 21.875H28.875C28.875 19.9418 30.4418 18.375 32.375 18.375V21.875ZM32.375 9.625C30.4418 9.625 28.875 8.0582 28.875 6.125H32.375V9.625Z" fill="black"/>
</svg>
