<svg width="23" height="23" viewBox="0 0 23 23" fill="none" xmlns="http://www.w3.org/2000/svg">
<g clip-path="url(#clip0)">
<path d="M11.4381 0.356766C5.31694 0.356766 0.357422 5.30696 0.357422 11.4167C0.357422 17.5264 5.31694 22.4766 11.4381 22.4766C17.5594 22.4766 22.5189 17.5264 22.5189 11.4167C22.5189 5.30696 17.5594 0.356766 11.4381 0.356766ZM13.9894 15.9699L10.0486 13.1113C9.91008 13.0087 9.82965 12.8482 9.82965 12.6787V5.17317C9.82965 4.87884 10.0709 4.63801 10.3658 4.63801H12.5105C12.8054 4.63801 13.0466 4.87884 13.0466 5.17317V11.3141L15.8838 13.3744C16.1251 13.5484 16.1743 13.8828 16 14.1237L14.74 15.854C14.5658 16.0904 14.2307 16.1439 13.9894 15.9699Z" fill="black"/>
</g>
<defs>
<clipPath id="clip0">
<rect width="22.8763" height="22.8333" fill="white"/>
</clipPath>
</defs>
</svg>
