<svg width="29" height="29" viewBox="0 0 29 29" fill="none" xmlns="http://www.w3.org/2000/svg">
<path d="M14.5001 2.41666C7.83008 2.41666 2.41675 7.83 2.41675 14.5C2.41675 21.17 7.83008 26.5833 14.5001 26.5833H20.5417V24.1667H14.5001C9.25591 24.1667 4.83341 19.7442 4.83341 14.5C4.83341 9.25583 9.25591 4.83333 14.5001 4.83333C19.7442 4.83333 24.1667 9.25583 24.1667 14.5V16.2279C24.1667 17.1825 23.3088 18.125 22.3542 18.125C21.3997 18.125 20.5417 17.1825 20.5417 16.2279V14.5C20.5417 11.165 17.8351 8.45833 14.5001 8.45833C11.1651 8.45833 8.45842 11.165 8.45842 14.5C8.45842 17.835 11.1651 20.5417 14.5001 20.5417C16.1676 20.5417 17.6901 19.865 18.7776 18.7654C19.563 19.8408 20.9163 20.5417 22.3542 20.5417C24.7347 20.5417 26.5834 18.6083 26.5834 16.2279V14.5C26.5834 7.83 21.1701 2.41666 14.5001 2.41666ZM14.5001 18.125C12.4942 18.125 10.8751 16.5058 10.8751 14.5C10.8751 12.4942 12.4942 10.875 14.5001 10.875C16.5059 10.875 18.1251 12.4942 18.1251 14.5C18.1251 16.5058 16.5059 18.125 14.5001 18.125Z" fill="#868686"/>
</svg>
