<svg width="39" height="40" viewBox="0 0 39 40" fill="none" xmlns="http://www.w3.org/2000/svg">
<path d="M25.2244 23.3333H23.9584L23.5097 22.8833C25.1345 20.9234 26.0275 18.4212 26.0257 15.8333C26.0257 13.6907 25.4148 11.5962 24.2702 9.81466C23.1256 8.03313 21.4987 6.64459 19.5953 5.82464C17.6919 5.00469 15.5975 4.79016 13.5769 5.20816C11.5562 5.62617 9.70015 6.65795 8.24336 8.17301C6.78656 9.68808 5.79447 11.6184 5.39254 13.7199C4.99061 15.8213 5.1969 17.9995 5.98531 19.9791C6.77372 21.9586 8.10885 23.6505 9.82186 24.8409C11.5349 26.0313 13.5488 26.6667 15.6091 26.6667C18.1892 26.6667 20.561 25.6833 22.3879 24.05L22.8206 24.5167V25.8333L30.8334 34.15L33.2212 31.6667L25.2244 23.3333ZM15.6091 23.3333C11.6187 23.3333 8.39752 19.9833 8.39752 15.8333C8.39752 11.6833 11.6187 8.33334 15.6091 8.33334C19.5994 8.33334 22.8206 11.6833 22.8206 15.8333C22.8206 19.9833 19.5994 23.3333 15.6091 23.3333Z" fill="black"/>
</svg>
