<svg width="30" height="29" viewBox="0 0 30 29" fill="none" xmlns="http://www.w3.org/2000/svg">
<path d="M0 6.51637V23.3899C0 24.9435 0.627615 26.3244 1.6318 27.4033C2.63598 28.439 3.93305 29 5.43933 29H13.6402V25.5045H5.43933C4.30962 25.5045 3.43096 24.5551 3.43096 23.3899V6.51637C3.43096 5.35119 4.30962 4.44494 5.43933 4.44494H13.6402V0.90625H5.43933C3.93305 0.90625 2.63598 1.51042 1.6318 2.54613C0.627615 3.625 0 4.9628 0 6.51637ZM8.99582 11.6086V18.3408C8.99582 19.1176 9.66527 19.7649 10.4184 19.7649H17.9916V25.0729C17.9916 25.5476 18.2427 25.936 18.6611 26.1518C18.8285 26.1949 18.9958 26.1949 19.0795 26.1949C19.3724 26.1949 19.6234 26.1086 19.8326 25.8929L29.6653 15.7515C30.1255 15.3631 30.0837 14.5863 29.6653 14.1548L19.8326 4.05655C19.2469 3.40923 17.9916 3.79762 17.9916 4.83333V10.1845H10.4184C9.66527 10.1845 8.99582 10.8318 8.99582 11.6086Z" fill="#868686"/>
</svg>
