<svg width="29" height="29" viewBox="0 0 29 29" fill="none" xmlns="http://www.w3.org/2000/svg">
<path d="M20.5415 8.45833H26.5832V20.5417H20.5415V22.9583C20.5415 23.2788 20.6688 23.5861 20.8954 23.8128C21.122 24.0394 21.4294 24.1667 21.7498 24.1667H24.1665V26.5833H21.1457C20.4811 26.5833 19.3332 26.0396 19.3332 25.375C19.3332 26.0396 18.1853 26.5833 17.5207 26.5833H14.4998V24.1667H16.9165C17.237 24.1667 17.5443 24.0394 17.7709 23.8128C17.9975 23.5861 18.1248 23.2788 18.1248 22.9583V6.04166C18.1248 5.72119 17.9975 5.41385 17.7709 5.18724C17.5443 4.96064 17.237 4.83333 16.9165 4.83333H14.4998V2.41666H17.5207C18.1853 2.41666 19.3332 2.96041 19.3332 3.625C19.3332 2.96041 20.4811 2.41666 21.1457 2.41666H24.1665V4.83333H21.7498C21.4294 4.83333 21.122 4.96064 20.8954 5.18724C20.6688 5.41385 20.5415 5.72119 20.5415 6.04166V8.45833ZM2.4165 8.45833H15.7082V10.875H4.83317V18.125H15.7082V20.5417H2.4165V8.45833ZM24.1665 18.125V10.875H20.5415V18.125H24.1665ZM10.2707 14.5C10.2707 14.262 10.2238 14.0263 10.1327 13.8064C10.0416 13.5865 9.90811 13.3867 9.7398 13.2184C9.5715 13.0501 9.37169 12.9166 9.15178 12.8255C8.93188 12.7344 8.69619 12.6875 8.45817 12.6875C8.22015 12.6875 7.98446 12.7344 7.76456 12.8255C7.54465 12.9166 7.34485 13.0501 7.17654 13.2184C7.00823 13.3867 6.87473 13.5865 6.78364 13.8064C6.69255 14.0263 6.64567 14.262 6.64567 14.5C6.64567 14.9807 6.83663 15.4417 7.17654 15.7816C7.51645 16.1215 7.97747 16.3125 8.45817 16.3125C8.93888 16.3125 9.39989 16.1215 9.7398 15.7816C10.0797 15.4417 10.2707 14.9807 10.2707 14.5ZM15.7082 13.1587C15.4483 12.9226 15.1255 12.767 14.7789 12.7108C14.4323 12.6547 14.0768 12.7004 13.7557 12.8425C13.4346 12.9845 13.1617 13.2168 12.9701 13.5111C12.7786 13.8053 12.6766 14.1489 12.6766 14.5C12.6766 14.8511 12.7786 15.1947 12.9701 15.4889C13.1617 15.7832 13.4346 16.0155 13.7557 16.1575C14.0768 16.2996 14.4323 16.3453 14.7789 16.2892C15.1255 16.233 15.4483 16.0774 15.7082 15.8412V13.1587Z" fill="#868686"/>
</svg>
