<svg width="28" height="28" viewBox="0 0 28 28" fill="none" xmlns="http://www.w3.org/2000/svg">
<path d="M25.4551 15.3253C27.0914 12.208 23.7653 10.0463 19.4166 8.98614C19.7438 8.24249 19.8386 7.26904 18.916 6.33959C17.7328 5.15001 18.5192 3.41711 18.5192 3.41711C18.5192 3.41711 16.0358 5.70785 17.6038 7.28741C18.1822 7.8696 18.4833 8.38088 18.6273 8.80845C17.4268 8.561 16.2112 8.39348 14.9885 8.30699C15.3537 7.31432 15.3891 6.0675 14.2384 4.87365C12.6631 3.23728 13.7122 0.854279 13.7122 0.854279C13.7122 0.854279 10.4006 4.004 12.4914 6.17557C13.2547 6.96748 13.6567 7.66457 13.8514 8.2489C12.5555 8.21003 11.3082 8.26684 10.2003 8.42189C10.3322 7.78332 10.222 7.04907 9.51769 6.34002C8.33451 5.15044 9.1213 3.41711 9.1213 3.41711C9.1213 3.41711 6.63749 5.70785 8.20594 7.28741C8.69715 7.78203 8.98504 8.22369 9.15035 8.60855C8.96326 8.64955 8.78173 8.69397 8.60703 8.74224C3.20714 8.23694 0.851904 9.35262 1.92787 11.5413C0.0501658 13.419 0.755798 15.5619 3.10549 17.2017C4.33137 22.2509 4.64703 26.4826 13.88 26.4826C22.1187 26.4826 23.257 23.1125 24.2774 18.7992C27.3392 18.1897 26.6869 16.722 25.4551 15.3253ZM24.6918 14.8208C23.6662 17.0078 19.2154 18.654 13.88 18.654C8.54509 18.654 4.09431 17.0078 3.06832 14.8208C3.04654 14.7559 3.02561 14.6884 3.00468 14.6227C3.49333 13.3831 5.08143 12.3076 7.31194 11.5874C6.78784 12.094 6.67892 12.8505 8.05815 13.1157C8.45283 13.1917 9.53648 12.9286 9.06278 11.584C8.99658 11.3961 8.88851 11.27 8.75567 11.194C10.2882 10.8433 12.028 10.6413 13.88 10.6413C14.0876 10.6413 14.2914 10.6486 14.496 10.6533C13.4273 11.0326 12.5555 12.2012 14.7377 12.5459C15.2196 12.6219 16.5424 12.3588 15.9641 11.0142C15.9135 10.8943 15.8325 10.7898 15.7291 10.7109C17.7738 10.8613 19.6263 11.2551 21.1239 11.8228C19.807 11.7493 18.3462 12.5609 20.6856 13.7035C21.1875 13.9486 22.7124 14.1737 22.5027 12.689C22.4875 12.5817 22.4497 12.4789 22.3916 12.3874C23.5889 13.0183 24.424 13.7833 24.755 14.6227L24.6918 14.8208Z" fill="black"/>
<path d="M11.0362 15.7362C12.4171 15.7362 13.338 14.4877 14.0595 13.999C15.0675 13.3156 17.6022 13.0491 15.3699 12.9952C13.2526 12.9444 10.6385 14.6632 8.89153 14.5449C5.99895 14.3484 8.96158 15.7362 11.0362 15.7362Z" fill="black"/>
<path d="M14.02 18.2871C14.5078 18.381 15.8486 18.0556 15.2621 16.3927C14.5996 14.5112 10.5892 17.6267 14.02 18.2871Z" fill="black"/>
<path d="M6.42712 14.1716C5.96111 13.5138 5.28538 12.6796 5.0056 13.114C4.62331 13.7082 4.50286 14.9037 4.7805 14.9567C6.95719 15.374 6.80471 14.7042 6.42712 14.1716Z" fill="black"/>
<path d="M19.0812 14.4381C19.4737 13.9521 18.6899 12.7821 18.1867 12.9867C17.3991 13.3071 16.945 13.0901 16.5991 13.5762C15.7888 14.7145 18.5477 15.0981 19.0812 14.4381Z" fill="black"/>
<path d="M18.8358 15.831C18.2711 15.582 18.4044 16.4162 17.5702 15.7469C16.9731 15.2676 15.6882 16.4764 16.5357 17.2974C17.4788 18.211 17.7299 17.3427 18.1263 17.4157C18.9319 17.5639 20.3171 16.4845 18.8358 15.831Z" fill="black"/>
<path d="M9.44646 16.1163C9.15216 15.8267 8.75749 16.1761 8.53452 16.6024C8.31369 16.4939 8.13386 16.4687 8.13386 16.4687C7.96515 15.9878 7.46326 15.658 7.46326 15.658C7.46326 15.658 7.50896 16.1582 7.57517 16.4021C7.02074 16.2052 7.00366 15.2142 7.00366 15.2142C7.00366 15.2142 6.63162 15.4368 6.66536 15.8148C6.05498 15.3223 5.53516 15.5525 5.53516 15.5525C5.53516 15.5525 6.30956 15.9882 6.41634 16.2821C5.98152 16.3158 5.7278 16.4662 5.58001 16.816C5.58043 16.819 6.43941 16.4072 7.07499 16.7045C6.82426 16.9095 6.94898 17.4217 6.94898 17.4217C7.54057 16.7946 8.01299 16.8617 8.391 16.974C8.3453 17.1658 8.34829 17.341 8.42945 17.4473C9.0851 18.3093 11.369 18.1154 11.9824 17.4781C12.7252 16.7071 10.6612 17.3119 9.44646 16.1163Z" fill="black"/>
<path d="M11.0599 12.8697C10.8656 13.2601 10.8643 13.5548 11.089 13.8615C11.0919 13.8623 11.1795 12.9141 11.7608 12.5211C11.8083 12.8415 12.3114 12.997 12.3114 12.997C11.9091 11.572 13.0837 11.4977 13.0781 10.9864C12.4554 11.039 12.1017 11.4917 12.1017 11.4917C11.6024 11.3896 11.0612 11.6506 11.0612 11.6506C11.0612 11.6506 11.5144 11.868 11.7574 11.9368C11.3038 12.3114 10.4444 11.8172 10.4444 11.8172C10.4444 11.8172 10.4444 12.2512 10.7861 12.4156C10.0502 12.6869 9.98096 13.2507 9.98096 13.2507C9.98096 13.2507 10.7524 12.8103 11.0599 12.8697Z" fill="black"/>
<path d="M21.9736 14.8157C22.1504 14.48 21.8924 14.131 21.8924 14.131C21.8924 14.131 21.4956 15.0395 20.9083 15.0084C21.0629 14.8085 21.2978 14.3642 21.2978 14.3642C21.2978 14.3642 20.7075 14.4766 20.3667 14.8554C20.3667 14.8554 19.8131 14.7021 19.2817 15.0301C19.5816 15.4445 20.57 14.805 21.0941 16.1898C21.0941 16.1898 21.4059 15.7657 21.2534 15.4799C21.9548 15.4496 22.5895 16.1595 22.5916 16.1569C22.5891 15.7768 22.4131 15.541 22.024 15.3428C22.2358 15.1126 23.1183 15.0079 23.1183 15.0079C23.1183 15.0079 22.727 14.5957 21.9736 14.8157Z" fill="black"/>
</svg>
